# xmcd CD database file
#
# Track frame offsets:
#	150
#	22000
#	49436
#	89994
#	106262
#	122105
#	140790
#	153382
#	175282
#	195991
#	224716
#	238300
#
# Disc length: 3509 seconds
#
# Revision: 0
# Processed by: cddbd v1.5.2PL0 Copyright (c) Steve Scherf et al.
# Submitted via: jetAudio 7
#
DISCID=be0db30c
DTITLE=宋飛  - Beautiful Narcissus Faery
DYEAR=1900
DGENRE=장르 없음
TTITLE0=Why Are The Flowers So Red
TTITLE1=Long For Country
TTITLE2=Orchid Blossom
TTITLE3=Butterfly Lovers
TTITLE4=Jasmine Flower
TTITLE5=Succeed Step By Step
TTITLE6=My Homeland
TTITLE7=Perfect Moon
TTITLE8=Pastoral
TTITLE9=Colorful Cloud Chasing The Moon
TTITLE10=Paradise
TTITLE11=Beautiful Narcissus Faery
EXTD=
EXTT0=
EXTT1=
EXTT2=
EXTT3=
EXTT4=
EXTT5=
EXTT6=
EXTT7=
EXTT8=
EXTT9=
EXTT10=
EXTT11=
PLAYORDER=
